<svg xmlns="http://www.w3.org/2000/svg" viewBox="0 0 7200 7200" preserveAspectRatio="xMidYMid meet">
  <g transform="translate(0,7200) scale(0.36,-0.36)">
    <path d="M9615 16998 c-197 -10 -607 -56 -885 -99 -299 -45 -886 -175 -1175 -259 -422 -122 -696 -210 -970 -310 -93 -34 -231 -83 -305 -110 -210 -75 -769 -303 -1010 -412 -80 -36 -203 -92 -275 -123 -233 -103 -1186 -586 -1345 -681 -47 -28 -146 -86 -220 -129 -226 -131 -244 -142 -277 -177 -33 -35 -57 -103 -48 -140 2 -13 9 -104 15 -203 5 -99 14 -229 20 -290 5 -60 17 -189 25 -285 23 -266 43 -468 65 -645 50 -404 112 -859 130 -955 10 -58 26 -150 35 -205 35 -226 88 -497 178 -915 25 -113 50 -236 56 -275 7 -38 25 -112 42 -163 16 -51 29 -98 29 -105 0 -16 142 -520 214 -757 63 -211 200 -613 274 -805 27 -71 64 -175 81 -229 18 -55 48 -131 68 -170 19 -39 55 -122 80 -185 24 -63 59 -142 78 -175 19 -34 49 -97 68 -142 30 -68 101 -213 294 -596 42 -84 44 -127 9 -280 -14 -62 -32 -154 -39 -204 -20 -124 -36 -152 -140 -247 -150 -137 -226 -248 -280 -407 -82 -238 -88 -450 -22 -670 20 -69 61 -217 90 -330 103 -400 118 -432 309 -659 185 -219 396 -327 707 -360 164 -18 404 14 531 70 101 44 152 56 292 69 67 6 175 17 241 25 66 8 179 14 250 13 100 -1 154 4 232 20 114 25 155 27 186 11 37 -19 199 -130 247 -169 40 -33 91 -69 362 -253 476 -324 1100 -665 1633 -892 191 -81 491 -185 534 -185 71 0 435 138 766 290 253 116 580 280 692 347 73 43 185 109 250 147 157 91 396 248 673 440 237 164 292 205 367 276 120 114 155 120 304 51 160 -74 226 -86 464 -86 201 -1 213 -2 285 -27 118 -42 189 -51 335 -44 117 6 145 4 265 -20 168 -33 299 -29 519 16 232 46 330 96 463 233 114 117 149 196 219 490 27 115 61 237 75 271 62 148 67 172 68 331 1 235 -41 350 -264 725 -18 30 -45 82 -60 115 -15 33 -77 161 -138 285 -61 124 -127 272 -147 330 -56 161 -56 161 109 480 75 146 155 308 178 360 22 52 56 125 74 162 18 36 61 133 95 214 33 82 71 166 84 189 13 22 36 78 51 125 15 47 57 166 94 265 93 248 238 682 304 910 30 105 77 253 104 330 27 77 57 185 67 240 9 55 28 143 41 195 12 52 45 201 73 330 120 565 115 549 221 714 198 312 240 604 124 863 -35 78 -39 144 -20 293 47 374 75 631 101 935 9 99 20 223 25 275 16 162 34 544 27 572 -11 43 -53 84 -135 134 -42 26 -103 64 -135 86 -33 22 -99 60 -147 84 -49 24 -115 60 -147 81 -115 74 -1182 612 -1383 697 -63 27 -178 78 -255 114 -77 36 -183 82 -235 103 -52 20 -230 91 -395 157 -1701 681 -3154 979 -4440 910z" fill="black"/>
  </g>
</svg>
