<svg xmlns="http://www.w3.org/2000/svg" viewBox="0 0 2592 2592" preserveAspectRatio="xMidYMid meet">
  <g transform="translate(0,2592) scale(0.36,-0.36)">
    <path d="M9810 16994 c-776 -30 -1513 -156 -2390 -409 -1188 -343 -2568 -930
-3780 -1608 -162 -91 -508 -295 -527 -311 -3 -3 35 -554 52 -761 218 -2562
795 -4747 1696 -6416 l68 -126 -24 -74 c-39 -125 -75 -331 -75 -435 0 -40 -3
-44 -75 -98 -364 -279 -506 -783 -332 -1179 13 -28 31 -92 41 -142 47 -240
119 -465 185 -573 49 -80 240 -290 331 -363 79 -63 215 -129 330 -161 75 -20
107 -23 280 -22 223 0 311 16 448 80 96 45 135 52 347 64 94 5 195 16 225 24
45 13 69 14 134 5 95 -13 201 -1 369 40 l118 28 77 -61 c635 -512 1410 -968
2212 -1303 201 -84 461 -183 480 -183 19 0 279 99 480 183 810 338 1572 788
2214 1306 92 75 177 142 187 150 16 12 28 8 96 -32 211 -123 455 -170 645
-124 57 14 59 14 140 -19 129 -51 232 -68 358 -59 161 11 179 10 265 -15 102
-30 324 -34 420 -8 33 9 87 19 120 23 253 30 507 217 589 436 13 35 47 161 75
279 28 121 66 251 85 297 112 263 83 525 -87 796 -108 172 -387 742 -462 942
l-65 175 87 163 c376 699 735 1598 991 2477 33 113 73 239 90 280 30 75 54
172 67 265 4 28 29 142 55 255 48 202 139 621 159 732 8 46 23 73 75 145 79
107 155 256 192 378 57 188 36 403 -52 552 -16 27 -28 53 -27 58 24 143 103
857 133 1205 21 242 61 813 57 816 -19 16 -365 220 -527 311 -1358 760 -2925
1403 -4198 1722 -842 212 -1703 320 -2352 295z" fill="black"/>
  </g>
</svg>
